<svg xmlns="http://www.w3.org/2000/svg" viewBox="0 0 512 512" width="512" height="512">
  <g><line x1="256.0" y1="76.0" x2="256.0" y2="171.0" stroke="#b85dff" stroke-width="8.5" stroke-linecap="round"/><line x1="411.9" y1="166.0" x2="329.6" y2="213.5" stroke="#b85dff" stroke-width="8.5" stroke-linecap="round"/><line x1="411.9" y1="346.0" x2="329.6" y2="298.5" stroke="#b85dff" stroke-width="8.5" stroke-linecap="round"/><line x1="256.0" y1="436.0" x2="256.0" y2="341.0" stroke="#b85dff" stroke-width="8.5" stroke-linecap="round"/><line x1="100.1" y1="346.0" x2="182.4" y2="298.5" stroke="#b85dff" stroke-width="8.5" stroke-linecap="round"/><line x1="100.1" y1="166.0" x2="182.4" y2="213.5" stroke="#b85dff" stroke-width="8.5" stroke-linecap="round"/></g>
  <polygon points="256.0,76.0 411.9,166.0 411.9,346.0 256.0,436.0 100.1,346.0 100.1,166.0" fill="#00ffb2" fill-opacity="0.14" stroke="#00ffb2" stroke-width="8.5" stroke-linejoin="round"/>
  <polygon points="256.0,171.0 329.6,213.5 329.6,298.5 256.0,341.0 182.4,298.5 182.4,213.5" fill="#00e5ff" fill-opacity="0.28" stroke="#00e5ff" stroke-width="7" stroke-linejoin="round"/>
  
    <line x1="256" y1="256" x2="256" y2="341" stroke="#00e5ff" stroke-width="6"/>
    <line x1="256" y1="256" x2="329.61215932167727" y2="213.5" stroke="#00e5ff" stroke-width="6"/>
    <line x1="256" y1="256" x2="182.3878406783227" y2="213.5" stroke="#00e5ff" stroke-width="6"/>
    
  <circle cx="256" cy="256" r="14" fill="#ffcc00" stroke="#040a08" stroke-width="4"/>
  <circle cx="256" cy="256" r="5" fill="#ffffff"/>
  <circle cx="256.0" cy="76.0" r="11" fill="#040a08" stroke="#00ffb2" stroke-width="4.5"/><circle cx="256.0" cy="76.0" r="4" fill="#ffffff"/><circle cx="411.9" cy="166.0" r="11" fill="#040a08" stroke="#00ffb2" stroke-width="4.5"/><circle cx="411.9" cy="166.0" r="4" fill="#ffffff"/><circle cx="411.9" cy="346.0" r="11" fill="#040a08" stroke="#00ffb2" stroke-width="4.5"/><circle cx="411.9" cy="346.0" r="4" fill="#ffffff"/><circle cx="256.0" cy="436.0" r="11" fill="#040a08" stroke="#00ffb2" stroke-width="4.5"/><circle cx="256.0" cy="436.0" r="4" fill="#ffffff"/><circle cx="100.1" cy="346.0" r="11" fill="#040a08" stroke="#00ffb2" stroke-width="4.5"/><circle cx="100.1" cy="346.0" r="4" fill="#ffffff"/><circle cx="100.1" cy="166.0" r="11" fill="#040a08" stroke="#00ffb2" stroke-width="4.5"/><circle cx="100.1" cy="166.0" r="4" fill="#ffffff"/>
  <circle cx="256.0" cy="171.0" r="9" fill="#040a08" stroke="#00e5ff" stroke-width="4"/><circle cx="256.0" cy="171.0" r="3" fill="#ffcc00"/><circle cx="329.6" cy="213.5" r="9" fill="#040a08" stroke="#00e5ff" stroke-width="4"/><circle cx="329.6" cy="213.5" r="3" fill="#ffcc00"/><circle cx="329.6" cy="298.5" r="9" fill="#040a08" stroke="#00e5ff" stroke-width="4"/><circle cx="329.6" cy="298.5" r="3" fill="#ffcc00"/><circle cx="256.0" cy="341.0" r="9" fill="#040a08" stroke="#00e5ff" stroke-width="4"/><circle cx="256.0" cy="341.0" r="3" fill="#ffcc00"/><circle cx="182.4" cy="298.5" r="9" fill="#040a08" stroke="#00e5ff" stroke-width="4"/><circle cx="182.4" cy="298.5" r="3" fill="#ffcc00"/><circle cx="182.4" cy="213.5" r="9" fill="#040a08" stroke="#00e5ff" stroke-width="4"/><circle cx="182.4" cy="213.5" r="3" fill="#ffcc00"/>
</svg>