<svg xmlns="http://www.w3.org/2000/svg" viewBox="0 0 512 512" width="512" height="512">
  <g><polygon points="209.2,121.0 162.5,148.0 115.7,121.0 115.7,67.0 162.5,40.0 209.2,67.0" fill="#00ffb2" fill-opacity="0.92" stroke="#040a08" stroke-width="5" stroke-linejoin="round"/><polygon points="302.8,121.0 256.0,148.0 209.2,121.0 209.2,67.0 256.0,40.0 302.8,67.0" fill="#00e5ff" fill-opacity="0.38" stroke="#040a08" stroke-width="5" stroke-linejoin="round"/><polygon points="396.3,121.0 349.5,148.0 302.8,121.0 302.8,67.0 349.5,40.0 396.3,67.0" fill="#00ffb2" fill-opacity="0.92" stroke="#040a08" stroke-width="5" stroke-linejoin="round"/><polygon points="162.5,202.0 115.7,229.0 68.9,202.0 68.9,148.0 115.7,121.0 162.5,148.0" fill="#00e5ff" fill-opacity="0.38" stroke="#040a08" stroke-width="5" stroke-linejoin="round"/><polygon points="256.0,202.0 209.2,229.0 162.5,202.0 162.5,148.0 209.2,121.0 256.0,148.0" fill="#00ffb2" fill-opacity="0.92" stroke="#040a08" stroke-width="5" stroke-linejoin="round"/><polygon points="349.5,202.0 302.8,229.0 256.0,202.0 256.0,148.0 302.8,121.0 349.5,148.0" fill="#00e5ff" fill-opacity="0.38" stroke="#040a08" stroke-width="5" stroke-linejoin="round"/><polygon points="443.1,202.0 396.3,229.0 349.5,202.0 349.5,148.0 396.3,121.0 443.1,148.0" fill="#00ffb2" fill-opacity="0.92" stroke="#040a08" stroke-width="5" stroke-linejoin="round"/><polygon points="115.7,283.0 68.9,310.0 22.2,283.0 22.2,229.0 68.9,202.0 115.7,229.0" fill="#00ffb2" fill-opacity="0.92" stroke="#040a08" stroke-width="5" stroke-linejoin="round"/><polygon points="209.2,283.0 162.5,310.0 115.7,283.0 115.7,229.0 162.5,202.0 209.2,229.0" fill="#00e5ff" fill-opacity="0.38" stroke="#040a08" stroke-width="5" stroke-linejoin="round"/><polygon points="302.8,283.0 256.0,310.0 209.2,283.0 209.2,229.0 256.0,202.0 302.8,229.0" fill="#00ffb2" fill-opacity="0.92" stroke="#040a08" stroke-width="5" stroke-linejoin="round"/><polygon points="396.3,283.0 349.5,310.0 302.8,283.0 302.8,229.0 349.5,202.0 396.3,229.0" fill="#00e5ff" fill-opacity="0.38" stroke="#040a08" stroke-width="5" stroke-linejoin="round"/><polygon points="489.8,283.0 443.1,310.0 396.3,283.0 396.3,229.0 443.1,202.0 489.8,229.0" fill="#00ffb2" fill-opacity="0.92" stroke="#040a08" stroke-width="5" stroke-linejoin="round"/><polygon points="162.5,364.0 115.7,391.0 68.9,364.0 68.9,310.0 115.7,283.0 162.5,310.0" fill="#00ffb2" fill-opacity="0.92" stroke="#040a08" stroke-width="5" stroke-linejoin="round"/><polygon points="256.0,364.0 209.2,391.0 162.5,364.0 162.5,310.0 209.2,283.0 256.0,310.0" fill="#00e5ff" fill-opacity="0.38" stroke="#040a08" stroke-width="5" stroke-linejoin="round"/><polygon points="349.5,364.0 302.8,391.0 256.0,364.0 256.0,310.0 302.8,283.0 349.5,310.0" fill="#00ffb2" fill-opacity="0.92" stroke="#040a08" stroke-width="5" stroke-linejoin="round"/><polygon points="443.1,364.0 396.3,391.0 349.5,364.0 349.5,310.0 396.3,283.0 443.1,310.0" fill="#00e5ff" fill-opacity="0.38" stroke="#040a08" stroke-width="5" stroke-linejoin="round"/><polygon points="209.2,445.0 162.5,472.0 115.7,445.0 115.7,391.0 162.5,364.0 209.2,391.0" fill="#00ffb2" fill-opacity="0.92" stroke="#040a08" stroke-width="5" stroke-linejoin="round"/><polygon points="302.8,445.0 256.0,472.0 209.2,445.0 209.2,391.0 256.0,364.0 302.8,391.0" fill="#00e5ff" fill-opacity="0.38" stroke="#040a08" stroke-width="5" stroke-linejoin="round"/><polygon points="396.3,445.0 349.5,472.0 302.8,445.0 302.8,391.0 349.5,364.0 396.3,391.0" fill="#00ffb2" fill-opacity="0.92" stroke="#040a08" stroke-width="5" stroke-linejoin="round"/></g>
</svg>