<svg xmlns="http://www.w3.org/2000/svg" viewBox="0 0 512 512" width="512" height="512">
  <g transform="rotate(90 256 256)">
  
    <rect x="75" y="80" width="362" height="30" rx="8" fill="#091b17" stroke="#00ffb2" stroke-width="5"/>
    <circle cx="75" cy="95" r="16" fill="#040a08" stroke="#00ffb2" stroke-width="4"/>
    <circle cx="75" cy="95" r="6" fill="#ffcc00"/>
    <circle cx="437" cy="95" r="16" fill="#040a08" stroke="#00ffb2" stroke-width="4"/>
    <circle cx="437" cy="95" r="6" fill="#ffcc00"/>
    
  <g><polygon points="100.0,110.0 144.6,110.0 154.1,150.0 109.6,150.0" fill="#00ffb2" fill-opacity="0.92" stroke="#040a08" stroke-width="4.5" stroke-linejoin="round"/><polygon points="144.6,110.0 189.1,110.0 198.7,150.0 154.1,150.0" fill="#00e5ff" fill-opacity="0.38" stroke="#040a08" stroke-width="4.5" stroke-linejoin="round"/><polygon points="189.1,110.0 233.7,110.0 243.3,150.0 198.7,150.0" fill="#00ffb2" fill-opacity="0.92" stroke="#040a08" stroke-width="4.5" stroke-linejoin="round"/><polygon points="233.7,110.0 278.3,110.0 287.9,150.0 243.3,150.0" fill="#00e5ff" fill-opacity="0.38" stroke="#040a08" stroke-width="4.5" stroke-linejoin="round"/><polygon points="278.3,110.0 322.9,110.0 332.4,150.0 287.9,150.0" fill="#00ffb2" fill-opacity="0.92" stroke="#040a08" stroke-width="4.5" stroke-linejoin="round"/><polygon points="322.9,110.0 367.4,110.0 377.0,150.0 332.4,150.0" fill="#00e5ff" fill-opacity="0.38" stroke="#040a08" stroke-width="4.5" stroke-linejoin="round"/><polygon points="367.4,110.0 412.0,110.0 421.6,150.0 377.0,150.0" fill="#00ffb2" fill-opacity="0.92" stroke="#040a08" stroke-width="4.5" stroke-linejoin="round"/><polygon points="109.6,150.0 154.1,150.0 161.8,190.0 117.2,190.0" fill="#00e5ff" fill-opacity="0.38" stroke="#040a08" stroke-width="4.5" stroke-linejoin="round"/><polygon points="154.1,150.0 198.7,150.0 206.4,190.0 161.8,190.0" fill="#00ffb2" fill-opacity="0.92" stroke="#040a08" stroke-width="4.5" stroke-linejoin="round"/><polygon points="198.7,150.0 243.3,150.0 250.9,190.0 206.4,190.0" fill="#00e5ff" fill-opacity="0.38" stroke="#040a08" stroke-width="4.5" stroke-linejoin="round"/><polygon points="243.3,150.0 287.9,150.0 295.5,190.0 250.9,190.0" fill="#00ffb2" fill-opacity="0.92" stroke="#040a08" stroke-width="4.5" stroke-linejoin="round"/><polygon points="287.9,150.0 332.4,150.0 340.1,190.0 295.5,190.0" fill="#00e5ff" fill-opacity="0.38" stroke="#040a08" stroke-width="4.5" stroke-linejoin="round"/><polygon points="332.4,150.0 377.0,150.0 384.7,190.0 340.1,190.0" fill="#00ffb2" fill-opacity="0.92" stroke="#040a08" stroke-width="4.5" stroke-linejoin="round"/><polygon points="377.0,150.0 421.6,150.0 429.2,190.0 384.7,190.0" fill="#00e5ff" fill-opacity="0.38" stroke="#040a08" stroke-width="4.5" stroke-linejoin="round"/><polygon points="117.2,190.0 161.8,190.0 166.0,230.0 121.5,230.0" fill="#00ffb2" fill-opacity="0.92" stroke="#040a08" stroke-width="4.5" stroke-linejoin="round"/><polygon points="161.8,190.0 206.4,190.0 210.6,230.0 166.0,230.0" fill="#00e5ff" fill-opacity="0.38" stroke="#040a08" stroke-width="4.5" stroke-linejoin="round"/><polygon points="206.4,190.0 250.9,190.0 255.2,230.0 210.6,230.0" fill="#00ffb2" fill-opacity="0.92" stroke="#040a08" stroke-width="4.5" stroke-linejoin="round"/><polygon points="250.9,190.0 295.5,190.0 299.8,230.0 255.2,230.0" fill="#00e5ff" fill-opacity="0.38" stroke="#040a08" stroke-width="4.5" stroke-linejoin="round"/><polygon points="295.5,190.0 340.1,190.0 344.3,230.0 299.8,230.0" fill="#00ffb2" fill-opacity="0.92" stroke="#040a08" stroke-width="4.5" stroke-linejoin="round"/><polygon points="340.1,190.0 384.7,190.0 388.9,230.0 344.3,230.0" fill="#00e5ff" fill-opacity="0.38" stroke="#040a08" stroke-width="4.5" stroke-linejoin="round"/><polygon points="384.7,190.0 429.2,190.0 433.5,230.0 388.9,230.0" fill="#00ffb2" fill-opacity="0.92" stroke="#040a08" stroke-width="4.5" stroke-linejoin="round"/><polygon points="121.5,230.0 166.0,230.0 166.0,270.0 121.4,270.0" fill="#00e5ff" fill-opacity="0.38" stroke="#040a08" stroke-width="4.5" stroke-linejoin="round"/><polygon points="166.0,230.0 210.6,230.0 210.6,270.0 166.0,270.0" fill="#00ffb2" fill-opacity="0.92" stroke="#040a08" stroke-width="4.5" stroke-linejoin="round"/><polygon points="210.6,230.0 255.2,230.0 255.1,270.0 210.6,270.0" fill="#00e5ff" fill-opacity="0.38" stroke="#040a08" stroke-width="4.5" stroke-linejoin="round"/><polygon points="255.2,230.0 299.8,230.0 299.7,270.0 255.1,270.0" fill="#00ffb2" fill-opacity="0.92" stroke="#040a08" stroke-width="4.5" stroke-linejoin="round"/><polygon points="299.8,230.0 344.3,230.0 344.3,270.0 299.7,270.0" fill="#00e5ff" fill-opacity="0.38" stroke="#040a08" stroke-width="4.5" stroke-linejoin="round"/><polygon points="344.3,230.0 388.9,230.0 388.9,270.0 344.3,270.0" fill="#00ffb2" fill-opacity="0.92" stroke="#040a08" stroke-width="4.5" stroke-linejoin="round"/><polygon points="388.9,230.0 433.5,230.0 433.4,270.0 388.9,270.0" fill="#00e5ff" fill-opacity="0.38" stroke="#040a08" stroke-width="4.5" stroke-linejoin="round"/><polygon points="121.4,270.0 166.0,270.0 161.7,310.0 117.1,310.0" fill="#00ffb2" fill-opacity="0.92" stroke="#040a08" stroke-width="4.5" stroke-linejoin="round"/><polygon points="166.0,270.0 210.6,270.0 206.3,310.0 161.7,310.0" fill="#00e5ff" fill-opacity="0.38" stroke="#040a08" stroke-width="4.5" stroke-linejoin="round"/><polygon points="210.6,270.0 255.1,270.0 250.8,310.0 206.3,310.0" fill="#00ffb2" fill-opacity="0.92" stroke="#040a08" stroke-width="4.5" stroke-linejoin="round"/><polygon points="255.1,270.0 299.7,270.0 295.4,310.0 250.8,310.0" fill="#00e5ff" fill-opacity="0.38" stroke="#040a08" stroke-width="4.5" stroke-linejoin="round"/><polygon points="299.7,270.0 344.3,270.0 340.0,310.0 295.4,310.0" fill="#00ffb2" fill-opacity="0.92" stroke="#040a08" stroke-width="4.5" stroke-linejoin="round"/><polygon points="344.3,270.0 388.9,270.0 384.5,310.0 340.0,310.0" fill="#00e5ff" fill-opacity="0.38" stroke="#040a08" stroke-width="4.5" stroke-linejoin="round"/><polygon points="388.9,270.0 433.4,270.0 429.1,310.0 384.5,310.0" fill="#00ffb2" fill-opacity="0.92" stroke="#040a08" stroke-width="4.5" stroke-linejoin="round"/><polygon points="117.1,310.0 161.7,310.0 154.0,350.0 109.4,350.0" fill="#00e5ff" fill-opacity="0.38" stroke="#040a08" stroke-width="4.5" stroke-linejoin="round"/><polygon points="161.7,310.0 206.3,310.0 198.5,350.0 154.0,350.0" fill="#00ffb2" fill-opacity="0.92" stroke="#040a08" stroke-width="4.5" stroke-linejoin="round"/><polygon points="206.3,310.0 250.8,310.0 243.1,350.0 198.5,350.0" fill="#00e5ff" fill-opacity="0.38" stroke="#040a08" stroke-width="4.5" stroke-linejoin="round"/><polygon points="250.8,310.0 295.4,310.0 287.7,350.0 243.1,350.0" fill="#00ffb2" fill-opacity="0.92" stroke="#040a08" stroke-width="4.5" stroke-linejoin="round"/><polygon points="295.4,310.0 340.0,310.0 332.3,350.0 287.7,350.0" fill="#00e5ff" fill-opacity="0.38" stroke="#040a08" stroke-width="4.5" stroke-linejoin="round"/><polygon points="340.0,310.0 384.5,310.0 376.8,350.0 332.3,350.0" fill="#00ffb2" fill-opacity="0.92" stroke="#040a08" stroke-width="4.5" stroke-linejoin="round"/><polygon points="384.5,310.0 429.1,310.0 421.4,350.0 376.8,350.0" fill="#00e5ff" fill-opacity="0.38" stroke="#040a08" stroke-width="4.5" stroke-linejoin="round"/><polygon points="109.4,350.0 154.0,350.0 144.4,390.0 99.8,390.0" fill="#00ffb2" fill-opacity="0.92" stroke="#040a08" stroke-width="4.5" stroke-linejoin="round"/><polygon points="154.0,350.0 198.5,350.0 189.0,390.0 144.4,390.0" fill="#00e5ff" fill-opacity="0.38" stroke="#040a08" stroke-width="4.5" stroke-linejoin="round"/><polygon points="198.5,350.0 243.1,350.0 233.5,390.0 189.0,390.0" fill="#00ffb2" fill-opacity="0.92" stroke="#040a08" stroke-width="4.5" stroke-linejoin="round"/><polygon points="243.1,350.0 287.7,350.0 278.1,390.0 233.5,390.0" fill="#00e5ff" fill-opacity="0.38" stroke="#040a08" stroke-width="4.5" stroke-linejoin="round"/><polygon points="287.7,350.0 332.3,350.0 322.7,390.0 278.1,390.0" fill="#00ffb2" fill-opacity="0.92" stroke="#040a08" stroke-width="4.5" stroke-linejoin="round"/><polygon points="332.3,350.0 376.8,350.0 367.2,390.0 322.7,390.0" fill="#00e5ff" fill-opacity="0.38" stroke="#040a08" stroke-width="4.5" stroke-linejoin="round"/><polygon points="376.8,350.0 421.4,350.0 411.8,390.0 367.2,390.0" fill="#00ffb2" fill-opacity="0.92" stroke="#040a08" stroke-width="4.5" stroke-linejoin="round"/><polygon points="99.8,390.0 144.4,390.0 134.8,430.0 90.3,430.0" fill="#00e5ff" fill-opacity="0.38" stroke="#040a08" stroke-width="4.5" stroke-linejoin="round"/><polygon points="144.4,390.0 189.0,390.0 179.4,430.0 134.8,430.0" fill="#00ffb2" fill-opacity="0.92" stroke="#040a08" stroke-width="4.5" stroke-linejoin="round"/><polygon points="189.0,390.0 233.5,390.0 224.0,430.0 179.4,430.0" fill="#00e5ff" fill-opacity="0.38" stroke="#040a08" stroke-width="4.5" stroke-linejoin="round"/><polygon points="233.5,390.0 278.1,390.0 268.6,430.0 224.0,430.0" fill="#00ffb2" fill-opacity="0.92" stroke="#040a08" stroke-width="4.5" stroke-linejoin="round"/><polygon points="278.1,390.0 322.7,390.0 313.1,430.0 268.6,430.0" fill="#00e5ff" fill-opacity="0.38" stroke="#040a08" stroke-width="4.5" stroke-linejoin="round"/><polygon points="322.7,390.0 367.2,390.0 357.7,430.0 313.1,430.0" fill="#00ffb2" fill-opacity="0.92" stroke="#040a08" stroke-width="4.5" stroke-linejoin="round"/><polygon points="367.2,390.0 411.8,390.0 402.3,430.0 357.7,430.0" fill="#00e5ff" fill-opacity="0.38" stroke="#040a08" stroke-width="4.5" stroke-linejoin="round"/></g>
  <line x1="85.3" y1="430.0" x2="407.3" y2="430.0" stroke="#00ffb2" stroke-width="9" stroke-linecap="round"/>
  </g>
</svg>