<svg xmlns="http://www.w3.org/2000/svg" viewBox="0 0 512 512" width="512" height="512">
  <defs>
    <filter id="glow-l1" x="-50%" y="-50%" width="200%" height="200%">
      <feGaussianBlur stdDeviation="12" result="b1"/>
      <feMerge><feMergeNode in="b1"/><feMergeNode in="SourceGraphic"/></feMerge>
    </filter>
  </defs>

  <g><line x1="160.0" y1="89.7" x2="224.0" y2="89.7" stroke="#00e5ff" stroke-width="5" stroke-opacity="0.65" stroke-linecap="round"/><line x1="160.0" y1="89.7" x2="128.0" y2="145.1" stroke="#00e5ff" stroke-width="5" stroke-opacity="0.65" stroke-linecap="round"/><line x1="160.0" y1="89.7" x2="192.0" y2="145.1" stroke="#00e5ff" stroke-width="5" stroke-opacity="0.65" stroke-linecap="round"/><line x1="224.0" y1="89.7" x2="288.0" y2="89.7" stroke="#00e5ff" stroke-width="5" stroke-opacity="0.65" stroke-linecap="round"/><line x1="224.0" y1="89.7" x2="192.0" y2="145.1" stroke="#00e5ff" stroke-width="5" stroke-opacity="0.65" stroke-linecap="round"/><line x1="224.0" y1="89.7" x2="256.0" y2="145.1" stroke="#00e5ff" stroke-width="5" stroke-opacity="0.65" stroke-linecap="round"/><line x1="288.0" y1="89.7" x2="352.0" y2="89.7" stroke="#00e5ff" stroke-width="5" stroke-opacity="0.65" stroke-linecap="round"/><line x1="288.0" y1="89.7" x2="256.0" y2="145.1" stroke="#00e5ff" stroke-width="5" stroke-opacity="0.65" stroke-linecap="round"/><line x1="288.0" y1="89.7" x2="320.0" y2="145.1" stroke="#00e5ff" stroke-width="5" stroke-opacity="0.65" stroke-linecap="round"/><line x1="352.0" y1="89.7" x2="320.0" y2="145.1" stroke="#00e5ff" stroke-width="5" stroke-opacity="0.65" stroke-linecap="round"/><line x1="352.0" y1="89.7" x2="384.0" y2="145.1" stroke="#00e5ff" stroke-width="5" stroke-opacity="0.65" stroke-linecap="round"/><line x1="128.0" y1="145.1" x2="192.0" y2="145.1" stroke="#00e5ff" stroke-width="5" stroke-opacity="0.65" stroke-linecap="round"/><line x1="128.0" y1="145.1" x2="96.0" y2="200.6" stroke="#00e5ff" stroke-width="5" stroke-opacity="0.65" stroke-linecap="round"/><line x1="128.0" y1="145.1" x2="160.0" y2="200.6" stroke="#00e5ff" stroke-width="5" stroke-opacity="0.65" stroke-linecap="round"/><line x1="192.0" y1="145.1" x2="256.0" y2="145.1" stroke="#00e5ff" stroke-width="5" stroke-opacity="0.65" stroke-linecap="round"/><line x1="192.0" y1="145.1" x2="160.0" y2="200.6" stroke="#00e5ff" stroke-width="5" stroke-opacity="0.65" stroke-linecap="round"/><line x1="192.0" y1="145.1" x2="224.0" y2="200.6" stroke="#00e5ff" stroke-width="5" stroke-opacity="0.65" stroke-linecap="round"/><line x1="256.0" y1="145.1" x2="320.0" y2="145.1" stroke="#00e5ff" stroke-width="5" stroke-opacity="0.65" stroke-linecap="round"/><line x1="256.0" y1="145.1" x2="224.0" y2="200.6" stroke="#00e5ff" stroke-width="5" stroke-opacity="0.65" stroke-linecap="round"/><line x1="256.0" y1="145.1" x2="288.0" y2="200.6" stroke="#00e5ff" stroke-width="5" stroke-opacity="0.65" stroke-linecap="round"/><line x1="320.0" y1="145.1" x2="384.0" y2="145.1" stroke="#00e5ff" stroke-width="5" stroke-opacity="0.65" stroke-linecap="round"/><line x1="320.0" y1="145.1" x2="288.0" y2="200.6" stroke="#00e5ff" stroke-width="5" stroke-opacity="0.65" stroke-linecap="round"/><line x1="320.0" y1="145.1" x2="352.0" y2="200.6" stroke="#00e5ff" stroke-width="5" stroke-opacity="0.65" stroke-linecap="round"/><line x1="384.0" y1="145.1" x2="352.0" y2="200.6" stroke="#00e5ff" stroke-width="5" stroke-opacity="0.65" stroke-linecap="round"/><line x1="384.0" y1="145.1" x2="416.0" y2="200.6" stroke="#00e5ff" stroke-width="5" stroke-opacity="0.65" stroke-linecap="round"/><line x1="96.0" y1="200.6" x2="160.0" y2="200.6" stroke="#00e5ff" stroke-width="5" stroke-opacity="0.65" stroke-linecap="round"/><line x1="96.0" y1="200.6" x2="64.0" y2="256.0" stroke="#00e5ff" stroke-width="5" stroke-opacity="0.65" stroke-linecap="round"/><line x1="96.0" y1="200.6" x2="128.0" y2="256.0" stroke="#00e5ff" stroke-width="5" stroke-opacity="0.65" stroke-linecap="round"/><line x1="160.0" y1="200.6" x2="224.0" y2="200.6" stroke="#00e5ff" stroke-width="5" stroke-opacity="0.65" stroke-linecap="round"/><line x1="160.0" y1="200.6" x2="128.0" y2="256.0" stroke="#00e5ff" stroke-width="5" stroke-opacity="0.65" stroke-linecap="round"/><line x1="160.0" y1="200.6" x2="192.0" y2="256.0" stroke="#00e5ff" stroke-width="5" stroke-opacity="0.65" stroke-linecap="round"/><line x1="224.0" y1="200.6" x2="288.0" y2="200.6" stroke="#00e5ff" stroke-width="5" stroke-opacity="0.65" stroke-linecap="round"/><line x1="224.0" y1="200.6" x2="192.0" y2="256.0" stroke="#00e5ff" stroke-width="5" stroke-opacity="0.65" stroke-linecap="round"/><line x1="224.0" y1="200.6" x2="256.0" y2="256.0" stroke="#00e5ff" stroke-width="5" stroke-opacity="0.65" stroke-linecap="round"/><line x1="288.0" y1="200.6" x2="352.0" y2="200.6" stroke="#00e5ff" stroke-width="5" stroke-opacity="0.65" stroke-linecap="round"/><line x1="288.0" y1="200.6" x2="256.0" y2="256.0" stroke="#00e5ff" stroke-width="5" stroke-opacity="0.65" stroke-linecap="round"/><line x1="288.0" y1="200.6" x2="320.0" y2="256.0" stroke="#00e5ff" stroke-width="5" stroke-opacity="0.65" stroke-linecap="round"/><line x1="352.0" y1="200.6" x2="416.0" y2="200.6" stroke="#00e5ff" stroke-width="5" stroke-opacity="0.65" stroke-linecap="round"/><line x1="352.0" y1="200.6" x2="320.0" y2="256.0" stroke="#00e5ff" stroke-width="5" stroke-opacity="0.65" stroke-linecap="round"/><line x1="352.0" y1="200.6" x2="384.0" y2="256.0" stroke="#00e5ff" stroke-width="5" stroke-opacity="0.65" stroke-linecap="round"/><line x1="416.0" y1="200.6" x2="384.0" y2="256.0" stroke="#00e5ff" stroke-width="5" stroke-opacity="0.65" stroke-linecap="round"/><line x1="416.0" y1="200.6" x2="448.0" y2="256.0" stroke="#00e5ff" stroke-width="5" stroke-opacity="0.65" stroke-linecap="round"/><line x1="64.0" y1="256.0" x2="128.0" y2="256.0" stroke="#00e5ff" stroke-width="5" stroke-opacity="0.65" stroke-linecap="round"/><line x1="64.0" y1="256.0" x2="96.0" y2="311.4" stroke="#00e5ff" stroke-width="5" stroke-opacity="0.65" stroke-linecap="round"/><line x1="128.0" y1="256.0" x2="192.0" y2="256.0" stroke="#00e5ff" stroke-width="5" stroke-opacity="0.65" stroke-linecap="round"/><line x1="128.0" y1="256.0" x2="96.0" y2="311.4" stroke="#00e5ff" stroke-width="5" stroke-opacity="0.65" stroke-linecap="round"/><line x1="128.0" y1="256.0" x2="160.0" y2="311.4" stroke="#00e5ff" stroke-width="5" stroke-opacity="0.65" stroke-linecap="round"/><line x1="192.0" y1="256.0" x2="256.0" y2="256.0" stroke="#00e5ff" stroke-width="5" stroke-opacity="0.65" stroke-linecap="round"/><line x1="192.0" y1="256.0" x2="160.0" y2="311.4" stroke="#00e5ff" stroke-width="5" stroke-opacity="0.65" stroke-linecap="round"/><line x1="192.0" y1="256.0" x2="224.0" y2="311.4" stroke="#00e5ff" stroke-width="5" stroke-opacity="0.65" stroke-linecap="round"/><line x1="256.0" y1="256.0" x2="320.0" y2="256.0" stroke="#00e5ff" stroke-width="5" stroke-opacity="0.65" stroke-linecap="round"/><line x1="256.0" y1="256.0" x2="224.0" y2="311.4" stroke="#00e5ff" stroke-width="5" stroke-opacity="0.65" stroke-linecap="round"/><line x1="256.0" y1="256.0" x2="288.0" y2="311.4" stroke="#00e5ff" stroke-width="5" stroke-opacity="0.65" stroke-linecap="round"/><line x1="320.0" y1="256.0" x2="384.0" y2="256.0" stroke="#00e5ff" stroke-width="5" stroke-opacity="0.65" stroke-linecap="round"/><line x1="320.0" y1="256.0" x2="288.0" y2="311.4" stroke="#00e5ff" stroke-width="5" stroke-opacity="0.65" stroke-linecap="round"/><line x1="320.0" y1="256.0" x2="352.0" y2="311.4" stroke="#00e5ff" stroke-width="5" stroke-opacity="0.65" stroke-linecap="round"/><line x1="384.0" y1="256.0" x2="448.0" y2="256.0" stroke="#00e5ff" stroke-width="5" stroke-opacity="0.65" stroke-linecap="round"/><line x1="384.0" y1="256.0" x2="352.0" y2="311.4" stroke="#00e5ff" stroke-width="5" stroke-opacity="0.65" stroke-linecap="round"/><line x1="384.0" y1="256.0" x2="416.0" y2="311.4" stroke="#00e5ff" stroke-width="5" stroke-opacity="0.65" stroke-linecap="round"/><line x1="448.0" y1="256.0" x2="416.0" y2="311.4" stroke="#00e5ff" stroke-width="5" stroke-opacity="0.65" stroke-linecap="round"/><line x1="96.0" y1="311.4" x2="160.0" y2="311.4" stroke="#00e5ff" stroke-width="5" stroke-opacity="0.65" stroke-linecap="round"/><line x1="96.0" y1="311.4" x2="128.0" y2="366.9" stroke="#00e5ff" stroke-width="5" stroke-opacity="0.65" stroke-linecap="round"/><line x1="160.0" y1="311.4" x2="224.0" y2="311.4" stroke="#00e5ff" stroke-width="5" stroke-opacity="0.65" stroke-linecap="round"/><line x1="160.0" y1="311.4" x2="128.0" y2="366.9" stroke="#00e5ff" stroke-width="5" stroke-opacity="0.65" stroke-linecap="round"/><line x1="160.0" y1="311.4" x2="192.0" y2="366.9" stroke="#00e5ff" stroke-width="5" stroke-opacity="0.65" stroke-linecap="round"/><line x1="224.0" y1="311.4" x2="288.0" y2="311.4" stroke="#00e5ff" stroke-width="5" stroke-opacity="0.65" stroke-linecap="round"/><line x1="224.0" y1="311.4" x2="192.0" y2="366.9" stroke="#00e5ff" stroke-width="5" stroke-opacity="0.65" stroke-linecap="round"/><line x1="224.0" y1="311.4" x2="256.0" y2="366.9" stroke="#00e5ff" stroke-width="5" stroke-opacity="0.65" stroke-linecap="round"/><line x1="288.0" y1="311.4" x2="352.0" y2="311.4" stroke="#00e5ff" stroke-width="5" stroke-opacity="0.65" stroke-linecap="round"/><line x1="288.0" y1="311.4" x2="256.0" y2="366.9" stroke="#00e5ff" stroke-width="5" stroke-opacity="0.65" stroke-linecap="round"/><line x1="288.0" y1="311.4" x2="320.0" y2="366.9" stroke="#00e5ff" stroke-width="5" stroke-opacity="0.65" stroke-linecap="round"/><line x1="352.0" y1="311.4" x2="416.0" y2="311.4" stroke="#00e5ff" stroke-width="5" stroke-opacity="0.65" stroke-linecap="round"/><line x1="352.0" y1="311.4" x2="320.0" y2="366.9" stroke="#00e5ff" stroke-width="5" stroke-opacity="0.65" stroke-linecap="round"/><line x1="352.0" y1="311.4" x2="384.0" y2="366.9" stroke="#00e5ff" stroke-width="5" stroke-opacity="0.65" stroke-linecap="round"/><line x1="416.0" y1="311.4" x2="384.0" y2="366.9" stroke="#00e5ff" stroke-width="5" stroke-opacity="0.65" stroke-linecap="round"/><line x1="128.0" y1="366.9" x2="192.0" y2="366.9" stroke="#00e5ff" stroke-width="5" stroke-opacity="0.65" stroke-linecap="round"/><line x1="128.0" y1="366.9" x2="160.0" y2="422.3" stroke="#00e5ff" stroke-width="5" stroke-opacity="0.65" stroke-linecap="round"/><line x1="192.0" y1="366.9" x2="256.0" y2="366.9" stroke="#00e5ff" stroke-width="5" stroke-opacity="0.65" stroke-linecap="round"/><line x1="192.0" y1="366.9" x2="160.0" y2="422.3" stroke="#00e5ff" stroke-width="5" stroke-opacity="0.65" stroke-linecap="round"/><line x1="192.0" y1="366.9" x2="224.0" y2="422.3" stroke="#00e5ff" stroke-width="5" stroke-opacity="0.65" stroke-linecap="round"/><line x1="256.0" y1="366.9" x2="320.0" y2="366.9" stroke="#00e5ff" stroke-width="5" stroke-opacity="0.65" stroke-linecap="round"/><line x1="256.0" y1="366.9" x2="224.0" y2="422.3" stroke="#00e5ff" stroke-width="5" stroke-opacity="0.65" stroke-linecap="round"/><line x1="256.0" y1="366.9" x2="288.0" y2="422.3" stroke="#00e5ff" stroke-width="5" stroke-opacity="0.65" stroke-linecap="round"/><line x1="320.0" y1="366.9" x2="384.0" y2="366.9" stroke="#00e5ff" stroke-width="5" stroke-opacity="0.65" stroke-linecap="round"/><line x1="320.0" y1="366.9" x2="288.0" y2="422.3" stroke="#00e5ff" stroke-width="5" stroke-opacity="0.65" stroke-linecap="round"/><line x1="320.0" y1="366.9" x2="352.0" y2="422.3" stroke="#00e5ff" stroke-width="5" stroke-opacity="0.65" stroke-linecap="round"/><line x1="384.0" y1="366.9" x2="352.0" y2="422.3" stroke="#00e5ff" stroke-width="5" stroke-opacity="0.65" stroke-linecap="round"/><line x1="160.0" y1="422.3" x2="224.0" y2="422.3" stroke="#00e5ff" stroke-width="5" stroke-opacity="0.65" stroke-linecap="round"/><line x1="224.0" y1="422.3" x2="288.0" y2="422.3" stroke="#00e5ff" stroke-width="5" stroke-opacity="0.65" stroke-linecap="round"/><line x1="288.0" y1="422.3" x2="352.0" y2="422.3" stroke="#00e5ff" stroke-width="5" stroke-opacity="0.65" stroke-linecap="round"/></g>

  <!-- Diagonal Slicing Scanner Beam -->
  <line x1="85" y1="385" x2="425" y2="125" stroke="#ffffff" stroke-width="7" stroke-linecap="round"/>
  <line x1="85" y1="385" x2="425" y2="125" stroke="#ffcc00" stroke-width="14" stroke-opacity="0.3" stroke-linecap="round"/>

  <g><circle cx="160.0" cy="89.7" r="8" fill="#040a08" stroke="#00ffb2" stroke-width="3.5"/><circle cx="160.0" cy="89.7" r="3" fill="#00ffb2"/><circle cx="224.0" cy="89.7" r="8" fill="#040a08" stroke="#00ffb2" stroke-width="3.5"/><circle cx="224.0" cy="89.7" r="3" fill="#00ffb2"/><circle cx="288.0" cy="89.7" r="8" fill="#040a08" stroke="#00ffb2" stroke-width="3.5"/><circle cx="288.0" cy="89.7" r="3" fill="#00ffb2"/><circle cx="352.0" cy="89.7" r="8" fill="#040a08" stroke="#00ffb2" stroke-width="3.5"/><circle cx="352.0" cy="89.7" r="3" fill="#00ffb2"/><circle cx="128.0" cy="145.1" r="8" fill="#040a08" stroke="#00ffb2" stroke-width="3.5"/><circle cx="128.0" cy="145.1" r="3" fill="#00ffb2"/><circle cx="192.0" cy="145.1" r="8" fill="#040a08" stroke="#00ffb2" stroke-width="3.5"/><circle cx="192.0" cy="145.1" r="3" fill="#00ffb2"/><circle cx="256.0" cy="145.1" r="8" fill="#040a08" stroke="#00ffb2" stroke-width="3.5"/><circle cx="256.0" cy="145.1" r="3" fill="#00ffb2"/><circle cx="320.0" cy="145.1" r="8" fill="#040a08" stroke="#00ffb2" stroke-width="3.5"/><circle cx="320.0" cy="145.1" r="3" fill="#00ffb2"/><circle cx="96.0" cy="200.6" r="8" fill="#040a08" stroke="#00ffb2" stroke-width="3.5"/><circle cx="96.0" cy="200.6" r="3" fill="#00ffb2"/><circle cx="160.0" cy="200.6" r="8" fill="#040a08" stroke="#00ffb2" stroke-width="3.5"/><circle cx="160.0" cy="200.6" r="3" fill="#00ffb2"/><circle cx="224.0" cy="200.6" r="8" fill="#040a08" stroke="#00ffb2" stroke-width="3.5"/><circle cx="224.0" cy="200.6" r="3" fill="#00ffb2"/><circle cx="288.0" cy="200.6" r="8" fill="#040a08" stroke="#00ffb2" stroke-width="3.5"/><circle cx="288.0" cy="200.6" r="3" fill="#00ffb2"/><circle cx="416.0" cy="200.6" r="8" fill="#040a08" stroke="#00ffb2" stroke-width="3.5"/><circle cx="416.0" cy="200.6" r="3" fill="#00ffb2"/><circle cx="64.0" cy="256.0" r="8" fill="#040a08" stroke="#00ffb2" stroke-width="3.5"/><circle cx="64.0" cy="256.0" r="3" fill="#00ffb2"/><circle cx="128.0" cy="256.0" r="8" fill="#040a08" stroke="#00ffb2" stroke-width="3.5"/><circle cx="128.0" cy="256.0" r="3" fill="#00ffb2"/><circle cx="192.0" cy="256.0" r="8" fill="#040a08" stroke="#00ffb2" stroke-width="3.5"/><circle cx="192.0" cy="256.0" r="3" fill="#00ffb2"/><circle cx="320.0" cy="256.0" r="8" fill="#040a08" stroke="#00ffb2" stroke-width="3.5"/><circle cx="320.0" cy="256.0" r="3" fill="#00ffb2"/><circle cx="384.0" cy="256.0" r="8" fill="#040a08" stroke="#00ffb2" stroke-width="3.5"/><circle cx="384.0" cy="256.0" r="3" fill="#00ffb2"/><circle cx="448.0" cy="256.0" r="8" fill="#040a08" stroke="#00ffb2" stroke-width="3.5"/><circle cx="448.0" cy="256.0" r="3" fill="#00ffb2"/><circle cx="96.0" cy="311.4" r="8" fill="#040a08" stroke="#00ffb2" stroke-width="3.5"/><circle cx="96.0" cy="311.4" r="3" fill="#00ffb2"/><circle cx="224.0" cy="311.4" r="8" fill="#040a08" stroke="#00ffb2" stroke-width="3.5"/><circle cx="224.0" cy="311.4" r="3" fill="#00ffb2"/><circle cx="288.0" cy="311.4" r="8" fill="#040a08" stroke="#00ffb2" stroke-width="3.5"/><circle cx="288.0" cy="311.4" r="3" fill="#00ffb2"/><circle cx="352.0" cy="311.4" r="8" fill="#040a08" stroke="#00ffb2" stroke-width="3.5"/><circle cx="352.0" cy="311.4" r="3" fill="#00ffb2"/><circle cx="416.0" cy="311.4" r="8" fill="#040a08" stroke="#00ffb2" stroke-width="3.5"/><circle cx="416.0" cy="311.4" r="3" fill="#00ffb2"/><circle cx="192.0" cy="366.9" r="8" fill="#040a08" stroke="#00ffb2" stroke-width="3.5"/><circle cx="192.0" cy="366.9" r="3" fill="#00ffb2"/><circle cx="256.0" cy="366.9" r="8" fill="#040a08" stroke="#00ffb2" stroke-width="3.5"/><circle cx="256.0" cy="366.9" r="3" fill="#00ffb2"/><circle cx="320.0" cy="366.9" r="8" fill="#040a08" stroke="#00ffb2" stroke-width="3.5"/><circle cx="320.0" cy="366.9" r="3" fill="#00ffb2"/><circle cx="384.0" cy="366.9" r="8" fill="#040a08" stroke="#00ffb2" stroke-width="3.5"/><circle cx="384.0" cy="366.9" r="3" fill="#00ffb2"/><circle cx="160.0" cy="422.3" r="8" fill="#040a08" stroke="#00ffb2" stroke-width="3.5"/><circle cx="160.0" cy="422.3" r="3" fill="#00ffb2"/><circle cx="224.0" cy="422.3" r="8" fill="#040a08" stroke="#00ffb2" stroke-width="3.5"/><circle cx="224.0" cy="422.3" r="3" fill="#00ffb2"/><circle cx="288.0" cy="422.3" r="8" fill="#040a08" stroke="#00ffb2" stroke-width="3.5"/><circle cx="288.0" cy="422.3" r="3" fill="#00ffb2"/><circle cx="352.0" cy="422.3" r="8" fill="#040a08" stroke="#00ffb2" stroke-width="3.5"/><circle cx="352.0" cy="422.3" r="3" fill="#00ffb2"/></g>
  <g><circle cx="384.0" cy="145.1" r="19" fill="#ffcc00" fill-opacity="0.4" filter="url(#glow-l1)"/><circle cx="384.0" cy="145.1" r="10.5" fill="#ffffff" stroke="#ffcc00" stroke-width="4.5"/><circle cx="384.0" cy="145.1" r="4" fill="#040a08"/><circle cx="352.0" cy="200.6" r="19" fill="#ffcc00" fill-opacity="0.4" filter="url(#glow-l1)"/><circle cx="352.0" cy="200.6" r="10.5" fill="#ffffff" stroke="#ffcc00" stroke-width="4.5"/><circle cx="352.0" cy="200.6" r="4" fill="#040a08"/><circle cx="256.0" cy="256.0" r="19" fill="#ffcc00" fill-opacity="0.4" filter="url(#glow-l1)"/><circle cx="256.0" cy="256.0" r="10.5" fill="#ffffff" stroke="#ffcc00" stroke-width="4.5"/><circle cx="256.0" cy="256.0" r="4" fill="#040a08"/><circle cx="160.0" cy="311.4" r="19" fill="#ffcc00" fill-opacity="0.4" filter="url(#glow-l1)"/><circle cx="160.0" cy="311.4" r="10.5" fill="#ffffff" stroke="#ffcc00" stroke-width="4.5"/><circle cx="160.0" cy="311.4" r="4" fill="#040a08"/><circle cx="128.0" cy="366.9" r="19" fill="#ffcc00" fill-opacity="0.4" filter="url(#glow-l1)"/><circle cx="128.0" cy="366.9" r="10.5" fill="#ffffff" stroke="#ffcc00" stroke-width="4.5"/><circle cx="128.0" cy="366.9" r="4" fill="#040a08"/></g>
</svg>