<svg xmlns="http://www.w3.org/2000/svg" viewBox="0 0 512 512" width="512" height="512">
  <defs>
    <filter id="glow-sp1" x="-50%" y="-50%" width="200%" height="200%">
      <feGaussianBlur stdDeviation="12" result="b1"/>
      <feMerge><feMergeNode in="b1"/><feMergeNode in="SourceGraphic"/></feMerge>
    </filter>
  </defs>

  <path d="M 238.0,256.0 L 237.7,254.5 L 237.6,253.0 L 237.6,251.4 L 237.7,249.9 L 237.9,248.3 L 238.3,246.7 L 238.8,245.1 L 239.4,243.5 L 240.2,242.0 L 241.1,240.5 L 242.2,239.0 L 243.4,237.6 L 244.7,236.3 L 246.2,235.1 L 247.7,234.0 L 249.4,233.0 L 251.2,232.1 L 253.1,231.4 L 255.1,230.8 L 257.2,230.3 L 259.3,230.1 L 261.5,230.0 L 263.7,230.0 L 265.9,230.3 L 268.2,230.7 L 270.4,231.3 L 272.7,232.2 L 274.9,233.2 L 277.0,234.4 L 279.1,235.8 L 281.1,237.4 L 283.0,239.2 L 284.8,241.2 L 286.4,243.3 L 287.9,245.6 L 289.2,248.1 L 290.3,250.7 L 291.3,253.5 L 292.0,256.3 L 292.5,259.3 L 292.8,262.3 L 292.8,265.4 L 292.5,268.6 L 292.0,271.8 L 291.3,275.0 L 290.2,278.2 L 288.9,281.3 L 287.3,284.4 L 285.4,287.3 L 283.3,290.2 L 280.9,293.0 L 278.2,295.5 L 275.3,297.9 L 272.1,300.1 L 268.7,302.1 L 265.1,303.8 L 261.3,305.3 L 257.4,306.4 L 253.2,307.3 L 249.0,307.8 L 244.6,308.0 L 240.2,307.8 L 235.7,307.3 L 231.2,306.4 L 226.7,305.1 L 222.2,303.4 L 217.8,301.3 L 213.6,298.8 L 209.4,296.0 L 205.5,292.7 L 201.7,289.1 L 198.2,285.1 L 195.0,280.8 L 192.0,276.1 L 189.5,271.2 L 187.2,265.9 L 185.4,260.4 L 184.0,254.7 L 183.1,248.8 L 182.6,242.7 L 182.6,236.5 L 183.2,230.1 L 184.2,223.8 L 185.8,217.4 L 188.0,211.1 L 190.6,204.8 L 193.9,198.7 L 197.7,192.8 L 202.0,187.1 L 206.9,181.6 L 212.3,176.5 L 218.2,171.8 L 224.6,167.4 L 231.4,163.5 L 238.6,160.2 L 246.2,157.3 L 254.2,155.1 L 262.5,153.5 L 271.0,152.5 L 279.7,152.2 L 288.6,152.7 L 297.5,153.8 L 306.5,155.7 L 315.5,158.4 L 324.4,161.9 L 333.1,166.1 L 341.6,171.1 L 349.8,176.9 L 357.7,183.5 L 365.1,190.8 L 372.1,198.8 L 378.5,207.5 L 384.3,216.9 L 389.4,226.8 L 393.7,237.3 L 397.2,248.4 L 399.9,259.9 L 401.7,271.8 L 402.6,284.0 L 402.4,296.4 L 401.2,309.0 L 399.0,321.7 L 395.7,334.4 L 391.3,347.1 L 385.8,359.5 L 379.2,371.7 L 371.5,383.5 L 362.7,394.8 L 352.8,405.6 L 342.0,415.8 L 330.1,425.1 L 317.3,433.7 L 303.6,441.3 L 289.1,448.0 L 273.8,453.5 L 257.8,457.8 L 241.3,460.9 L 224.2,462.7 L 206.8,463.1" fill="none" stroke="#00e5ff" stroke-width="9" stroke-linecap="round" stroke-linejoin="round"/>
  <path d="M 274.0,256.0 L 274.3,257.5 L 274.4,259.0 L 274.4,260.6 L 274.3,262.1 L 274.1,263.7 L 273.7,265.3 L 273.2,266.9 L 272.6,268.5 L 271.8,270.0 L 270.9,271.5 L 269.8,273.0 L 268.6,274.4 L 267.3,275.7 L 265.8,276.9 L 264.3,278.0 L 262.6,279.0 L 260.8,279.9 L 258.9,280.6 L 256.9,281.2 L 254.8,281.7 L 252.7,281.9 L 250.5,282.0 L 248.3,282.0 L 246.1,281.7 L 243.8,281.3 L 241.6,280.7 L 239.3,279.8 L 237.1,278.8 L 235.0,277.6 L 232.9,276.2 L 230.9,274.6 L 229.0,272.8 L 227.2,270.8 L 225.6,268.7 L 224.1,266.4 L 222.8,263.9 L 221.7,261.3 L 220.7,258.5 L 220.0,255.7 L 219.5,252.7 L 219.2,249.7 L 219.2,246.6 L 219.5,243.4 L 220.0,240.2 L 220.7,237.0 L 221.8,233.8 L 223.1,230.7 L 224.7,227.6 L 226.6,224.7 L 228.7,221.8 L 231.1,219.0 L 233.8,216.5 L 236.7,214.1 L 239.9,211.9 L 243.3,209.9 L 246.9,208.2 L 250.7,206.7 L 254.6,205.6 L 258.8,204.7 L 263.0,204.2 L 267.4,204.0 L 271.8,204.2 L 276.3,204.7 L 280.8,205.6 L 285.3,206.9 L 289.8,208.6 L 294.2,210.7 L 298.4,213.2 L 302.6,216.0 L 306.5,219.3 L 310.3,222.9 L 313.8,226.9 L 317.0,231.2 L 320.0,235.9 L 322.5,240.8 L 324.8,246.1 L 326.6,251.6 L 328.0,257.3 L 328.9,263.2 L 329.4,269.3 L 329.4,275.5 L 328.8,281.9 L 327.8,288.2 L 326.2,294.6 L 324.0,300.9 L 321.4,307.2 L 318.1,313.3 L 314.3,319.2 L 310.0,324.9 L 305.1,330.4 L 299.7,335.5 L 293.8,340.2 L 287.4,344.6 L 280.6,348.5 L 273.4,351.8 L 265.8,354.7 L 257.8,356.9 L 249.5,358.5 L 241.0,359.5 L 232.3,359.8 L 223.4,359.3 L 214.5,358.2 L 205.5,356.3 L 196.5,353.6 L 187.6,350.1 L 178.9,345.9 L 170.4,340.9 L 162.2,335.1 L 154.3,328.5 L 146.9,321.2 L 139.9,313.2 L 133.5,304.5 L 127.7,295.1 L 122.6,285.2 L 118.3,274.7 L 114.8,263.6 L 112.1,252.1 L 110.3,240.2 L 109.4,228.0 L 109.6,215.6 L 110.8,203.0 L 113.0,190.3 L 116.3,177.6 L 120.7,164.9 L 126.2,152.5 L 132.8,140.3 L 140.5,128.5 L 149.3,117.2 L 159.2,106.4 L 170.0,96.2 L 181.9,86.9 L 194.7,78.3 L 208.4,70.7 L 222.9,64.0 L 238.2,58.5 L 254.2,54.2 L 270.7,51.1 L 287.8,49.3 L 305.2,48.9" fill="none" stroke="#00ffb2" stroke-width="11" stroke-linecap="round" stroke-linejoin="round"/>

  <!-- Scanning Reader Ray -->
  <line x1="256" y1="256" x2="440.3" y2="126.9" stroke="#ffffff" stroke-width="7" stroke-linecap="round"/>

  <!-- Harmonic Intercept Nodes -->
  <circle cx="307.4" cy="220.0" r="15" fill="#00ffb2" fill-opacity="0.4" filter="url(#glow-sp1)"/><circle cx="307.4" cy="220.0" r="8.5" fill="#ffffff" stroke="#00ffb2" stroke-width="3.5"/><circle cx="307.4" cy="220.0" r="3" fill="#040a08"/><circle cx="307.4" cy="220.0" r="15" fill="#00ffb2" fill-opacity="0.4" filter="url(#glow-sp1)"/><circle cx="307.4" cy="220.0" r="8.5" fill="#ffffff" stroke="#00ffb2" stroke-width="3.5"/><circle cx="307.4" cy="220.0" r="3" fill="#040a08"/><circle cx="281.7" cy="238.0" r="15" fill="#00e5ff" fill-opacity="0.4" filter="url(#glow-sp1)"/><circle cx="281.7" cy="238.0" r="8.5" fill="#ffffff" stroke="#00e5ff" stroke-width="3.5"/><circle cx="281.7" cy="238.0" r="3" fill="#040a08"/><circle cx="358.5" cy="184.2" r="15" fill="#00e5ff" fill-opacity="0.4" filter="url(#glow-sp1)"/><circle cx="358.5" cy="184.2" r="8.5" fill="#ffffff" stroke="#00e5ff" stroke-width="3.5"/><circle cx="358.5" cy="184.2" r="3" fill="#040a08"/>

  <!-- Center Core Hub -->
  <circle cx="256" cy="256" r="18" fill="#ffcc00" fill-opacity="0.35" filter="url(#glow-sp1)"/>
  <circle cx="256" cy="256" r="12" fill="#040a08" stroke="#ffcc00" stroke-width="4.5"/>
  <circle cx="256" cy="256" r="4.5" fill="#ffffff"/>
</svg>