<svg xmlns="http://www.w3.org/2000/svg" viewBox="0 0 512 512" width="512" height="512">
  <g><polygon points="284.0,256.0 283.4,261.8 281.6,267.4 278.7,272.5 274.7,276.8 270.0,280.2 250.0,298.6 259.0,298.9 267.9,297.4 276.2,294.0 283.7,289.0 289.9,282.5" fill="#00ffb2" fill-opacity="0.92" stroke="#040a08" stroke-width="4.5" stroke-linejoin="round"/><polygon points="270.0,280.2 264.7,282.6 258.9,283.8 253.1,283.8 247.3,282.6 242.0,280.2 216.1,272.1 220.3,280.1 226.1,287.0 233.2,292.5 241.3,296.4 250.0,298.6" fill="#ff2a85" fill-opacity="0.48" stroke="#040a08" stroke-width="4.5" stroke-linejoin="round"/><polygon points="242.0,280.2 237.3,276.8 233.3,272.5 230.4,267.4 228.6,261.8 228.0,256.0 222.1,229.5 217.3,237.1 214.2,245.6 213.0,254.5 213.6,263.5 216.1,272.1" fill="#00ffb2" fill-opacity="0.92" stroke="#040a08" stroke-width="4.5" stroke-linejoin="round"/><polygon points="228.0,256.0 228.6,250.2 230.4,244.6 233.3,239.5 237.3,235.2 242.0,231.8 262.0,213.4 253.0,213.1 244.1,214.6 235.8,218.0 228.3,223.0 222.1,229.5" fill="#ff2a85" fill-opacity="0.48" stroke="#040a08" stroke-width="4.5" stroke-linejoin="round"/><polygon points="242.0,231.8 247.3,229.4 253.1,228.2 258.9,228.2 264.7,229.4 270.0,231.8 295.9,239.9 291.7,231.9 285.9,225.0 278.8,219.5 270.7,215.6 262.0,213.4" fill="#00ffb2" fill-opacity="0.92" stroke="#040a08" stroke-width="4.5" stroke-linejoin="round"/><polygon points="270.0,231.8 274.7,235.2 278.7,239.5 281.6,244.6 283.4,250.2 284.0,256.0 289.9,282.5 294.7,274.9 297.8,266.4 299.0,257.5 298.4,248.5 295.9,239.9" fill="#ff2a85" fill-opacity="0.48" stroke="#040a08" stroke-width="4.5" stroke-linejoin="round"/><polygon points="289.9,282.5 283.7,289.0 276.2,294.0 267.9,297.4 259.0,298.9 250.0,298.6 208.4,301.9 219.0,310.8 231.2,317.3 244.5,321.1 258.3,322.1 272.0,320.2" fill="#ff2a85" fill-opacity="0.48" stroke="#040a08" stroke-width="4.5" stroke-linejoin="round"/><polygon points="250.0,298.6 241.3,296.4 233.2,292.5 226.1,287.0 220.3,280.1 216.1,272.1 192.4,237.8 190.0,251.4 190.5,265.2 193.9,278.6 199.9,291.0 208.4,301.9" fill="#00ffb2" fill-opacity="0.92" stroke="#040a08" stroke-width="4.5" stroke-linejoin="round"/><polygon points="216.1,272.1 213.6,263.5 213.0,254.5 214.2,245.6 217.3,237.1 222.1,229.5 240.0,191.8 227.0,196.6 215.3,203.9 205.3,213.5 197.6,225.0 192.4,237.8" fill="#ff2a85" fill-opacity="0.48" stroke="#040a08" stroke-width="4.5" stroke-linejoin="round"/><polygon points="222.1,229.5 228.3,223.0 235.8,218.0 244.1,214.6 253.0,213.1 262.0,213.4 303.6,210.1 293.0,201.2 280.8,194.7 267.5,190.9 253.7,189.9 240.0,191.8" fill="#00ffb2" fill-opacity="0.92" stroke="#040a08" stroke-width="4.5" stroke-linejoin="round"/><polygon points="262.0,213.4 270.7,215.6 278.8,219.5 285.9,225.0 291.7,231.9 295.9,239.9 319.6,274.2 322.0,260.6 321.5,246.8 318.1,233.4 312.1,221.0 303.6,210.1" fill="#ff2a85" fill-opacity="0.48" stroke="#040a08" stroke-width="4.5" stroke-linejoin="round"/><polygon points="295.9,239.9 298.4,248.5 299.0,257.5 297.8,266.4 294.7,274.9 289.9,282.5 272.0,320.2 285.0,315.4 296.7,308.1 306.7,298.5 314.4,287.0 319.6,274.2" fill="#00ffb2" fill-opacity="0.92" stroke="#040a08" stroke-width="4.5" stroke-linejoin="round"/><polygon points="272.0,320.2 258.3,322.1 244.5,321.1 231.2,317.3 219.0,310.8 208.4,301.9 154.9,266.6 159.4,287.4 168.0,306.8 180.5,324.0 196.3,338.2 214.7,348.8" fill="#00ffb2" fill-opacity="0.92" stroke="#040a08" stroke-width="4.5" stroke-linejoin="round"/><polygon points="208.4,301.9 199.9,291.0 193.9,278.6 190.5,265.2 190.0,251.4 192.4,237.8 196.3,173.8 180.5,188.0 168.0,205.2 159.4,224.6 154.9,245.4 154.9,266.6" fill="#ff2a85" fill-opacity="0.48" stroke="#040a08" stroke-width="4.5" stroke-linejoin="round"/><polygon points="192.4,237.8 197.6,225.0 205.3,213.5 215.3,203.9 227.0,196.6 240.0,191.8 297.3,163.2 277.1,156.6 256.0,154.4 234.9,156.6 214.7,163.2 196.3,173.8" fill="#00ffb2" fill-opacity="0.92" stroke="#040a08" stroke-width="4.5" stroke-linejoin="round"/><polygon points="240.0,191.8 253.7,189.9 267.5,190.9 280.8,194.7 293.0,201.2 303.6,210.1 357.1,245.4 352.6,224.6 344.0,205.2 331.5,188.0 315.7,173.8 297.3,163.2" fill="#ff2a85" fill-opacity="0.48" stroke="#040a08" stroke-width="4.5" stroke-linejoin="round"/><polygon points="303.6,210.1 312.1,221.0 318.1,233.4 321.5,246.8 322.0,260.6 319.6,274.2 315.7,338.2 331.5,324.0 344.0,306.8 352.6,287.4 357.1,266.6 357.1,245.4" fill="#00ffb2" fill-opacity="0.92" stroke="#040a08" stroke-width="4.5" stroke-linejoin="round"/><polygon points="319.6,274.2 314.4,287.0 306.7,298.5 296.7,308.1 285.0,315.4 272.0,320.2 214.7,348.8 234.9,355.4 256.0,357.6 277.1,355.4 297.3,348.8 315.7,338.2" fill="#ff2a85" fill-opacity="0.48" stroke="#040a08" stroke-width="4.5" stroke-linejoin="round"/><polygon points="214.7,348.8 196.3,338.2 180.5,324.0 168.0,306.8 159.4,287.4 154.9,266.6 123.6,173.2 109.2,202.6 101.3,234.3 100.2,266.9 105.9,299.0 118.1,329.3" fill="#ff2a85" fill-opacity="0.48" stroke="#040a08" stroke-width="4.5" stroke-linejoin="round"/><polygon points="154.9,266.6 154.9,245.4 159.4,224.6 168.0,205.2 180.5,188.0 196.3,173.8 261.5,99.9 228.9,102.2 197.5,111.2 168.7,126.5 143.7,147.5 123.6,173.2" fill="#00ffb2" fill-opacity="0.92" stroke="#040a08" stroke-width="4.5" stroke-linejoin="round"/><polygon points="196.3,173.8 214.7,163.2 234.9,156.6 256.0,154.4 277.1,156.6 297.3,163.2 393.9,182.7 375.6,155.6 352.1,132.9 324.5,115.6 293.8,104.5 261.5,99.9" fill="#ff2a85" fill-opacity="0.48" stroke="#040a08" stroke-width="4.5" stroke-linejoin="round"/><polygon points="297.3,163.2 315.7,173.8 331.5,188.0 344.0,205.2 352.6,224.6 357.1,245.4 388.4,338.8 402.8,309.4 410.7,277.7 411.8,245.1 406.1,213.0 393.9,182.7" fill="#00ffb2" fill-opacity="0.92" stroke="#040a08" stroke-width="4.5" stroke-linejoin="round"/><polygon points="357.1,245.4 357.1,266.6 352.6,287.4 344.0,306.8 331.5,324.0 315.7,338.2 250.5,412.1 283.1,409.8 314.5,400.8 343.3,385.5 368.3,364.5 388.4,338.8" fill="#ff2a85" fill-opacity="0.48" stroke="#040a08" stroke-width="4.5" stroke-linejoin="round"/><polygon points="315.7,338.2 297.3,348.8 277.1,355.4 256.0,357.6 234.9,355.4 214.7,348.8 118.1,329.3 136.4,356.4 159.9,379.1 187.5,396.4 218.2,407.5 250.5,412.1" fill="#00ffb2" fill-opacity="0.92" stroke="#040a08" stroke-width="4.5" stroke-linejoin="round"/><polygon points="118.1,329.3 105.9,299.0 100.2,266.9 101.3,234.3 109.2,202.6 123.6,173.2 173.9,30.5 128.8,52.5 89.3,83.4 57.0,121.8 33.5,166.1 19.6,214.3" fill="#00ffb2" fill-opacity="0.92" stroke="#040a08" stroke-width="4.5" stroke-linejoin="round"/><polygon points="123.6,173.2 143.7,147.5 168.7,126.5 197.5,111.2 228.9,102.2 261.5,99.9 410.3,72.1 368.7,44.1 322.2,25.3 272.7,16.6 222.6,18.3 173.9,30.5" fill="#ff2a85" fill-opacity="0.48" stroke="#040a08" stroke-width="4.5" stroke-linejoin="round"/><polygon points="261.5,99.9 293.8,104.5 324.5,115.6 352.1,132.9 375.6,155.6 393.9,182.7 492.4,297.7 495.9,247.6 488.9,197.9 471.7,150.8 445.1,108.2 410.3,72.1" fill="#00ffb2" fill-opacity="0.92" stroke="#040a08" stroke-width="4.5" stroke-linejoin="round"/><polygon points="393.9,182.7 406.1,213.0 411.8,245.1 410.7,277.7 402.8,309.4 388.4,338.8 338.1,481.5 383.2,459.5 422.7,428.6 455.0,390.2 478.5,345.9 492.4,297.7" fill="#ff2a85" fill-opacity="0.48" stroke="#040a08" stroke-width="4.5" stroke-linejoin="round"/><polygon points="388.4,338.8 368.3,364.5 343.3,385.5 314.5,400.8 283.1,409.8 250.5,412.1 101.7,439.9 143.3,467.9 189.8,486.7 239.3,495.4 289.4,493.7 338.1,481.5" fill="#00ffb2" fill-opacity="0.92" stroke="#040a08" stroke-width="4.5" stroke-linejoin="round"/><polygon points="250.5,412.1 218.2,407.5 187.5,396.4 159.9,379.1 136.4,356.4 118.1,329.3 19.6,214.3 16.1,264.4 23.1,314.1 40.3,361.2 66.9,403.8 101.7,439.9" fill="#ff2a85" fill-opacity="0.48" stroke="#040a08" stroke-width="4.5" stroke-linejoin="round"/></g>
  <circle cx="256" cy="256" r="28" fill="#040a08" stroke="#00ffb2" stroke-width="4.5"/>
  <circle cx="256" cy="256" r="10" fill="#ffcc00"/>
</svg>